<?xml version="1.0" encoding="UTF-8"?>
<svg width="24px" height="24px" viewBox="0 0 24 24" version="1.1" xmlns="http://www.w3.org/2000/svg" xmlns:xlink="http://www.w3.org/1999/xlink" style="background: #1D1E1F;">
    <title>Slice 1</title>
    <defs>
        <filter x="-43.8%" y="-43.8%" width="187.5%" height="187.5%" filterUnits="objectBoundingBox" id="filter-1">
            <feOffset dx="0" dy="2" in="SourceAlpha" result="shadowOffsetOuter1"></feOffset>
            <feGaussianBlur stdDeviation="1.5" in="shadowOffsetOuter1" result="shadowBlurOuter1"></feGaussianBlur>
            <feColorMatrix values="0 0 0 0 1   0 0 0 0 1   0 0 0 0 1  0 0 0 0.5 0" type="matrix" in="shadowBlurOuter1" result="shadowMatrixOuter1"></feColorMatrix>
            <feMerge>
                <feMergeNode in="shadowMatrixOuter1"></feMergeNode>
                <feMergeNode in="SourceGraphic"></feMergeNode>
            </feMerge>
        </filter>
    </defs>
    <g id="Page-1" stroke="none" stroke-width="1" fill="none" fill-rule="evenodd">
        <g id="llama-icon" filter="url(#filter-1)" transform="translate(0.000000, -0.002495)" fill="#FFFFFF" fill-rule="nonzero">
            <path d="M11.9999722,22.4941161 C14.5207032,23.8061748 18.6683863,23.6159588 18.6683863,23.6159588 C18.4250881,23.1484345 18.2307497,22.1191685 18.2307497,22.1191685 C19.5644436,22.1191685 20.891191,22.4910693 20.891191,22.4910693 C21.2802012,21.4629751 20.891191,20.2411964 20.891191,20.2411964 C22.0025933,20.2411964 22.6694681,20.6630651 22.6694681,20.6161908 C22.6694681,20.1473072 22.3916036,19.2568829 21.7803573,18.366318 L23.5586344,18.366318 C23.5586344,17.5959856 22.6695236,16.4913927 22.6695236,16.4913927 C22.6663004,16.4913927 23.5586344,16.4914395 23.5586344,16.4914395 C23.5586344,16.4914395 23.1511183,14.7415749 20.8912465,13.8666191 C20.8238922,13.8405101 23.1140512,13.5228898 23.1140512,13.4916247 C23.1140512,12.4604368 22.4935243,11.4948262 21.7525708,10.8698979 L22.6694681,10.1199559 C22.054554,9.02628467 21.2005097,7.8765986 19.5575526,7.50165104 L20.4466634,6.74519351 C18.8906779,5.21404436 15.9825482,4.87031508 14.9452245,4.87031508 C14.9452245,4.87031508 15.5564708,4.12037308 15.5194593,4.12037308 C13.722732,4.12037308 12.7779928,4.49536752 12.0000278,5.24530952 C11.2220628,4.49536752 10.2773236,4.12037308 8.4805963,4.12037308 C8.44352917,4.12037308 9.05483103,4.87031508 9.05483103,4.87031508 C8.01750735,4.87031508 5.10932214,5.21404436 3.55339221,6.74519351 L4.44250297,7.50165104 C2.7994903,7.87664548 1.94550161,9.02623779 1.33058752,10.1199559 L2.24748473,10.8698979 C1.50658688,11.4948262 0.886004355,12.4604368 0.886004355,13.4916247 C0.886004355,13.5228898 3.17616339,13.8405101 3.10880904,13.8666191 C0.848937233,14.7415749 0.441421189,16.4914395 0.441421189,16.4914395 C0.441421189,16.4914395 1.33375518,16.4913927 1.33053195,16.4913927 C1.33053195,16.4913927 0.441421189,17.5959856 0.441421189,18.366318 L2.21964271,18.366318 C1.60834085,19.256836 1.33047638,20.1472603 1.33047638,20.616144 C1.33047638,20.6630183 1.99729555,20.2411495 3.10875347,20.2411495 C3.10875347,20.2411495 2.7197432,21.4629283 3.10875347,22.4910224 C3.10875347,22.4910224 4.43550078,22.1191217 5.76919471,22.1191217 C5.76919471,22.1191217 5.57485629,23.1484345 5.33155815,23.6159119 C5.33155815,23.6159588 9.47924123,23.8062216 11.9999722,22.4941161 Z" id="Path" fill-opacity="0"></path>
            <path d="M11.9999722,11.6263555 C9.94333049,11.6263555 7.49834536,11.298751 6.07662397,11.0766605 C5.48599523,10.984365 4.96155381,11.4036556 5.03546577,11.9063826 C5.30749509,13.7561832 5.88828742,17.5277367 6.22066891,18.3759741 C6.66525208,19.5105197 10.6662783,21.3757889 10.6662783,21.3757889 L11.9999722,21.3661797 L13.3336661,21.3757889 C13.3336661,21.3757889 17.3347479,19.5104729 17.7792755,18.3759272 C18.1116014,17.5277367 18.6924493,13.7561832 18.9644787,11.9063357 C19.0384462,11.4036088 18.5138936,10.9843181 17.9233205,11.0766136 C16.5015991,11.298751 14.0566695,11.6263555 11.9999722,11.6263555 Z" id="Path" fill-opacity="0"></path>
            <ellipse id="Oval" fill-opacity="0" cx="11.9998611" cy="19.491395" rx="2.66738785" ry="2.63419529"></ellipse>
            <path d="M12.9262057,15.8802455 C12.588378,15.8802455 12.272724,15.9920876 12.0000278,16.184366 C11.7273316,15.9920876 11.411622,15.8802455 11.0738499,15.8802455 C10.0508085,15.8802455 9.22154972,16.8896836 9.22154972,18.1349464 C9.22154972,19.3801623 10.050864,20.3896473 11.0738499,20.3896473 C11.4116775,20.3896473 11.7273316,20.2778052 12.0000278,20.0855268 C12.272724,20.2778052 13.1626128,20.2490244 13.5004404,20.2490244 C14.5234818,20.2490244 14.8341343,19.3801623 14.8341343,18.1349464 C14.8341343,16.8896836 13.9491915,15.8802455 12.9262057,15.8802455 Z" id="Path" fill-opacity="0"></path>
            <path d="M11.5554446,12.3762975 C11.5554446,12.3762975 18.2238587,12.3632664 22.6695236,10.1199091 C22.0546095,9.02623779 21.2005653,7.87655173 19.5576082,7.50160417 L20.4467189,6.74514664 C18.8907334,5.21399748 15.9826038,4.87026821 14.9452801,4.87026821 C14.9452801,4.87026821 15.5565264,4.12032621 15.5195149,4.12032621 C13.7227876,4.12032621 12.7780483,4.49532064 12.0000834,5.24526264 C11.2221184,4.49532064 10.2773792,4.12032621 8.48065187,4.12032621 C8.44358475,4.12032621 9.0548866,4.87026821 9.0548866,4.87026821 C8.01756293,4.87026821 5.10937772,5.21399748 3.55344778,6.74514664 L4.44255854,7.50160417 C2.79954588,7.8765986 1.94555719,9.02619092 1.33064309,10.1199091 C1.33064309,10.1199091 7.10994639,11.6263555 12.0001389,11.6263555 L11.5554446,12.3762975 Z" id="Path" fill-opacity="0"></path>
            <path d="M14.1499764,17.3229428 L13.9845359,17.3255678 C13.7889193,17.4982996 13.4504248,17.6682189 12.889083,17.8069669 C12.2229862,17.9716832 11.9999722,18.588174 11.9999722,18.588174 C11.9999722,18.588174 11.7769582,17.9716832 11.1108615,17.8069669 C10.6162627,17.6847187 10.2947179,17.5382365 10.0913767,17.3869731 L9.77755654,17.3919418 C9.22782945,17.9328244 8.88894593,18.6735322 8.88894593,19.4905513 C8.88894593,21.146808 10.281825,22.4895224 11.9999722,22.4895224 C13.7181194,22.4895224 15.1109985,21.146808 15.1109985,19.4905513 C15.1111096,18.6382358 14.7422168,17.8689347 14.1499764,17.3229428 Z" id="Path" fill-opacity="0"></path>
            <path d="M11.9999722,18.5881272 C11.9999722,18.5881272 12.2229862,17.9716363 12.889083,17.80692 C13.4504804,17.6681721 13.7889193,17.4982527 13.9845359,17.3255209 C14.1633139,17.1676482 14.2227769,17.007385 14.2227769,16.8663871 C14.2227769,16.2451151 13.4731541,15.7414507 11.9999722,15.7414507 C10.5267903,15.7414507 9.77716753,16.2451151 9.77716753,16.8663871 C9.77716753,17.0257597 9.85302453,17.2096476 10.0913767,17.3868794 C10.2947735,17.5381428 10.6163183,17.684625 11.1108615,17.8068731 C11.7770693,17.9716363 11.9999722,18.5881272 11.9999722,18.5881272 Z" id="Path"></path>
            <g id="Group" transform="translate(2.140334, 0.375202)" fill-opacity="0">
                <path d="M18.7484673,0.00272655596 C17.8966459,-0.0910220531 15.0818788,2.29736438 14.748497,4.54653414 C16.0627404,4.77551512 17.3149089,5.49269198 18.5286209,6.5122081 C20.5855961,4.16328982 19.352767,0.0691943198 18.7484673,0.00272655596 Z" id="Path"></path>
                <path d="M1.00348592,0.00272655596 C0.41080099,0.0679287135 -0.976465208,3.67162524 1.10807411,6.37463201 C1.1804856,6.46852125 4.79161237,4.35406824 5.00345624,4.49839423 C4.67007444,2.24913073 1.85530727,-0.0910220531 1.00348592,0.00272655596 Z" id="Path"></path>
            </g>
            <path d="M7.55564102,13.4924684 C7.0654325,13.4924684 6.6666414,13.8288384 6.6666414,14.2423167 C6.6666414,14.6558418 7.06548808,14.9921649 7.55564102,14.9921649 C8.04579396,14.9921649 8.44464063,14.655748 8.44464063,14.2423167 C8.44464063,13.8288853 8.04584953,13.4924684 7.55564102,13.4924684 Z" id="Path"></path>
            <path d="M16.4444146,13.4924684 C15.954206,13.4924684 15.5554149,13.8288384 15.5554149,14.2423167 C15.5554149,14.6558418 15.9542616,14.9921649 16.4444146,14.9921649 C16.9346231,14.9921649 17.3334142,14.655748 17.3334142,14.2423167 C17.3334142,13.8288853 16.9346231,13.4924684 16.4444146,13.4924684 Z" id="Path"></path>
            <path d="M23.4462104,16.8665277 L23.5554112,16.8665277 L23.5554112,16.8665277 C23.6883415,16.8665277 23.8142697,16.8163722 23.8987405,16.7297954 C23.9832113,16.6432185 24.0172775,16.529314 23.9916584,16.4192531 C23.9762091,16.3528322 23.6493849,15.0261019 22.1044028,14.0431477 C22.1092377,14.0423977 22.114017,14.0416478 22.1187962,14.0409446 C22.3972164,13.9981953 22.660243,13.9578834 22.862695,13.9248839 C22.9748411,13.9066029 23.0580893,13.8923062 23.1173856,13.8810095 C23.408143,13.8258385 23.5555779,13.695106 23.5555779,13.4924684 C23.5555779,12.5893881 23.1181636,11.6397146 22.3693188,10.8871946 L22.9760081,10.3909363 C23.1127175,10.2790942 23.1497846,10.1062218 23.0682036,9.96105205 C22.6260656,9.17482934 21.7499033,8.20354688 20.5406371,7.58499355 C22.5849972,5.86405034 22.4750741,2.81075189 21.8732196,1.11573016 C21.5394488,0.175712861 21.1843936,0.0321837404 20.9462637,0.00598100423 C20.5877074,-0.0337215317 20.1428463,0.123963629 19.5860059,0.487239489 C18.5144494,1.18636974 16.8456509,2.84398577 16.4823708,4.63228736 C16.2227343,4.59113172 15.9752126,4.56061655 15.74603,4.53924187 C15.7712045,4.50657048 15.7934337,4.47722716 15.8126619,4.4514463 C15.9181948,4.30993277 16.0378432,4.1495289 15.9133044,3.94984436 C15.8364471,3.82661182 15.6836216,3.74880047 15.5185145,3.74880047 C13.9180151,3.74880047 12.8607408,4.0316869 12.0000278,4.70944247 C11.1393148,4.0316869 10.0820404,3.74880047 8.48154103,3.74880047 C8.31643396,3.74880047 8.1636085,3.82661182 8.08675118,3.94984436 C7.96221232,4.1495289 8.0818052,4.30993277 8.1873937,4.4514463 C8.20662192,4.47722716 8.22885108,4.50657048 8.2540256,4.53924187 C8.03417922,4.55972594 7.7972164,4.58883488 7.54919456,4.62750618 C7.18380277,2.84103269 5.51717163,1.1857135 4.44661536,0.487239489 C3.88988609,0.123963629 3.44508063,-0.0337215317 3.08641316,0.00598100423 C2.84817216,0.0322774891 2.49306136,0.175759735 2.15934612,1.11577704 C1.55865869,2.80737694 1.44801305,5.85181614 3.4795914,7.57463433 C2.25982191,8.19262516 1.37637959,9.17042315 0.931796421,9.9611458 C0.850159837,10.1063155 0.887226959,10.2792348 1.02399186,10.39103 L1.63068116,10.8872883 C0.881836388,11.6398553 0.444422125,12.5894818 0.444422125,13.4925622 C0.444422125,13.6951998 0.591857017,13.8258853 0.882614408,13.8811033 C0.941855115,13.8923531 1.02515889,13.9066966 1.13730499,13.9249776 C1.33981262,13.9579302 1.60278357,13.998289 1.88120377,14.0410384 C1.88598304,14.0417884 1.89076231,14.0424915 1.89559715,14.0432415 C0.350837368,15.0261956 0.0237908766,16.3529728 0.00834161157,16.4193469 C-0.0172774934,16.5293608 0.0167886917,16.6432654 0.101259493,16.7298891 C0.185730295,16.816466 0.311658477,16.8666215 0.444588844,16.8666215 L0.553789584,16.8666215 C0.290096193,17.2896621 0,17.8682316 0,18.3660367 C0,18.5731274 0.19906779,18.7410312 0.444588844,18.7410312 L1.49102647,18.7410312 C1.07773085,19.4943481 0.888949718,20.193994 0.888949718,20.6153002 C0.888949718,20.7446733 0.969752709,20.867859 1.09984886,20.9363892 C1.31736117,21.0508563 1.51336678,20.9698575 1.64307391,20.9163739 C1.80234583,20.8506561 2.11761087,20.720533 2.56363893,20.6550496 C2.47972386,21.143808 2.42376195,21.9060779 2.68773321,22.6037082 C2.72385559,22.6991912 2.80376942,22.7785025 2.90969136,22.8239706 C3.01566887,22.8693918 3.13876283,22.8771729 3.25146466,22.8455796 C3.26219023,22.8425797 4.18575619,22.586646 5.23319413,22.5126783 C5.15361374,22.843564 5.04146764,23.2423706 4.92637617,23.4636173 C4.86774677,23.5762563 4.87836119,23.7060044 4.95477392,23.8108153 C5.03118665,23.9155794 5.16367244,23.982094 5.309329,23.988797 C5.34717414,23.9905314 5.57057718,24 5.9240208,24 C7.15634976,24 9.968116,23.8845955 12.0000278,22.9269534 C14.0320507,23.8846892 16.8438725,24 18.0760348,24 C18.4293672,24 18.652937,23.9905314 18.6907266,23.988797 C18.8363831,23.982094 18.9688689,23.9155794 19.0452817,23.8108153 C19.1216944,23.7060044 19.1323088,23.5763032 19.0736794,23.4636173 C18.9587547,23.2427456 18.8466085,22.8438922 18.766917,22.5128189 C19.8115207,22.5869272 20.7379765,22.8426265 20.7485353,22.8455796 C20.8612927,22.877126 20.9843311,22.8693449 21.0903086,22.8239706 C21.1962306,22.7785025 21.2761444,22.6991912 21.3122668,22.6037082 C21.576238,21.9060779 21.5202761,21.143808 21.4363611,20.6550496 C21.8824447,20.720533 22.1976542,20.8506561 22.3569261,20.9163739 C22.4866888,20.9699512 22.6826944,21.0509031 22.9001511,20.9363892 C23.0303029,20.8679058 23.1110503,20.7447202 23.1110503,20.6153002 C23.1110503,20.1939471 22.922158,19.4943481 22.508918,18.7410312 L23.5553556,18.7410312 C23.8008766,18.7410312 24,18.5731274 24,18.3660367 C24,17.8681379 23.7098482,17.2895683 23.4462104,16.8665277 Z M18.9917094,2.03184157 C19.7776213,1.23174407 20.4714489,0.838796773 20.7525366,0.763657262 C20.9858316,1.07255893 21.4066296,2.25243205 21.3624491,3.67764528 C21.3380526,4.46508672 21.1667769,5.46589999 20.5808163,6.31877796 C19.6885935,5.54028952 18.4756595,5.07042149 17.3508085,4.80384732 C17.5163601,3.93423522 18.107878,2.93159385 18.9917094,2.03184157 Z M3.28002913,0.763657262 C3.56117241,0.838843647 4.25494444,1.23179094 5.04085634,2.03184157 C5.92213132,2.92901576 6.51298235,3.92851655 6.68047905,4.79634743 C5.55540578,5.0596404 4.33802592,5.5258991 3.43946777,6.30110635 C2.86317684,5.45211895 2.69440196,4.45960242 2.67017217,3.67764528 C2.62588058,2.2523383 3.04673412,1.07246518 3.28002913,0.763657262 Z M9.97606292,17.7846078 C10.2186386,17.9263557 10.5461297,18.0577913 10.9860447,18.1665866 C11.3267066,18.2508197 11.5009276,18.5445809 11.5554446,18.6547824 L11.5554446,19.8543428 C10.5115078,19.8032966 9.70675667,19.5781594 9.33853066,19.3358192 C9.37243013,18.760859 9.59472171,18.2209607 9.97606292,17.7846078 Z M11.9999722,16.1167732 C13.0631929,16.1167732 13.777638,16.4180344 13.777638,16.866434 C13.777638,17.0729622 13.3986309,17.2899433 12.7638217,17.4468316 C12.4306622,17.5291898 12.1816956,17.6907655 12.0000278,17.8621379 C11.8183044,17.6907655 11.5693378,17.5291898 11.2361783,17.4468316 C10.6014247,17.2898964 10.2224176,17.0729153 10.2224176,16.866434 C10.222362,16.4180344 10.9367516,16.1167732 11.9999722,16.1167732 Z M12.4445554,18.6550637 C12.4995725,18.5448153 12.6754052,18.2502572 13.0139553,18.1665397 C13.4543705,18.0576507 13.7820283,17.9260745 14.0246595,17.784186 C14.4064453,18.2200701 14.6279589,18.7582809 14.6616361,19.3356317 C14.2934656,19.5781125 13.4886589,19.8032966 12.444611,19.854249 L12.444611,18.6549699 L12.4445554,18.6549699 L12.4445554,18.6550637 Z M9.73365395,20.8709996 C9.72037203,20.8374844 9.70119938,20.8052349 9.67624715,20.7752353 C9.57938359,20.6063004 9.50108138,20.4258812 9.4438413,20.236509 C10.1153286,20.4754742 11.0201665,20.6153002 11.9999722,20.6153002 C12.9797779,20.6153002 13.8845603,20.4754742 14.5561031,20.236509 C14.4989186,20.425928 14.4205608,20.6063004 14.3236973,20.7752353 C14.298745,20.8052349 14.2795724,20.8374844 14.2662905,20.8709996 C13.7954769,21.6167229 12.955826,22.1145748 11.9999722,22.1145748 C11.0441184,22.114528 10.2044675,21.6167229 9.73365395,20.8709996 Z M21.7776342,17.9909485 C21.6186957,17.9909485 21.4718721,18.0624787 21.3924585,18.1786332 C21.3131004,18.2947878 21.3132115,18.4378013 21.3928475,18.5538152 C21.7558496,19.0826511 21.992868,19.6076433 22.1170179,20.0253402 C21.79614,19.9395602 21.3804547,19.8653113 20.8886902,19.8653113 C20.7504248,19.8653113 20.6200508,19.9195918 20.5359134,20.0121217 C20.4517761,20.1046515 20.4234895,20.224931 20.459334,20.33757 C20.4624461,20.3473198 20.7276399,21.1977603 20.5653115,22.0205919 C20.0412035,21.9049998 19.1428121,21.7427679 18.2289714,21.7427679 C18.0988752,21.7427679 17.9752811,21.7908609 17.8908103,21.874344 C17.8063395,21.9578272 17.7694947,22.0683568 17.7899455,22.1767302 C17.8047835,22.2551978 17.905426,22.7754088 18.055584,23.2480424 C17.0731663,23.24448 15.0361418,23.1638093 13.3279977,22.619458 C14.0489449,22.3428996 14.6534113,21.8488444 15.0498127,21.2226975 C15.2683809,21.1305894 16.0202266,21.3416176 16.6486449,21.6805657 C16.7219456,21.7202682 16.8054161,21.7400023 16.8887754,21.7400023 C16.9798594,21.7400023 17.0707211,21.7164714 17.1480786,21.669644 C17.2961803,21.5799734 17.3643683,21.4232257 17.3201322,21.2740717 L16.9614648,20.0640584 C17.5066905,19.9144825 18.2163008,20.1035734 18.4786048,20.2053376 C18.6395439,20.2687116 18.82977,20.2451338 18.9624225,20.1454791 C19.095075,20.0458243 19.1445348,19.8890766 19.0884062,19.7469537 L18.3401172,17.8534662 L19.2516794,17.5971575 C19.4845854,17.5316741 19.6105136,17.3192866 19.5328782,17.1228833 C19.4552985,16.9263862 19.2034977,16.8202159 18.9705361,16.8856993 L17.6372312,17.2606 C17.525363,17.2920527 17.4328897,17.3596923 17.3802065,17.4486597 C17.3274679,17.5375803 17.3187985,17.64061 17.3560879,17.7349211 L17.9752811,19.3017885 C17.4418369,19.2224303 16.75729,19.2231802 16.1895017,19.5583784 C16.0386213,19.6474396 15.9684883,19.8058279 16.0131689,19.9565287 L16.2196222,20.6529872 C15.9626531,20.5662228 15.6795092,20.4936145 15.4031452,20.4677868 C15.5002311,20.1640413 15.5533032,19.8424836 15.5552482,19.5094885 C15.5553594,19.5073792 15.5553594,19.5052698 15.5554149,19.5031605 C15.5554149,19.4989887 15.5557484,19.4948637 15.5557484,19.4906919 C15.5557484,18.6266579 15.2184209,17.8162011 14.6021731,17.190101 C14.6492433,17.0768527 14.6669155,16.9671668 14.6669155,16.8665746 C14.6669155,16.1748036 13.9685309,15.3669718 12.0001389,15.3669718 C10.031747,15.3669718 9.33336238,16.1748036 9.33336238,16.8665746 C9.33336238,16.9674481 9.35109014,17.077509 9.39843824,17.1910854 C8.78330186,17.817373 8.44447391,18.6313922 8.44447391,19.4906919 C8.44447391,19.4948637 8.44480735,19.4989887 8.44480735,19.5031605 C8.44486292,19.5052698 8.44486292,19.5073792 8.44497407,19.5094885 C8.44691912,19.8424836 8.49999124,20.1640413 8.59707708,20.4677868 C8.3206575,20.4936145 8.0375136,20.5662228 7.7806001,20.6529872 L7.98705341,19.9565287 C8.03173402,19.8058279 7.96160102,19.6474396 7.81072061,19.5583784 C7.24287676,19.2230865 6.55832983,19.2224303 6.02499675,19.3017885 L6.64418995,17.7349211 C6.68147937,17.6405631 6.67280999,17.5375803 6.62007132,17.4486597 C6.56733264,17.3596923 6.47485934,17.2920527 6.36304667,17.2606 L5.02974176,16.8856993 C4.79678018,16.8202159 4.54503496,16.9264331 4.46739962,17.1228833 C4.38976429,17.3193335 4.5156369,17.531721 4.74859848,17.5971575 L5.66016069,17.8534662 L4.91187165,19.7469537 C4.85585417,19.8887485 4.90553634,20.0448399 5.03746639,20.1445885 C5.16945202,20.244337 5.35951132,20.2682429 5.52056157,20.2057594 C5.78375481,20.1036203 6.49358741,19.9143887 7.03875751,20.0641053 L6.68009004,21.2741186 C6.63590959,21.4232726 6.70409754,21.5800672 6.85214373,21.6696908 C6.92944563,21.7165183 7.02036289,21.7400492 7.11144686,21.7400492 C7.19480621,21.7400492 7.27827669,21.7203151 7.35157734,21.6806125 C7.96765847,21.347055 8.73206365,21.1327925 8.95057628,21.2231193 C9.34703331,21.8490319 9.95133298,22.3430402 10.6722246,22.6195517 C8.96396934,23.1639499 6.92688927,23.2445737 5.94458277,23.2480424 C6.09479631,22.7755963 6.19543882,22.2553384 6.21022121,22.1768239 C6.23067204,22.0684037 6.19382721,21.9579209 6.1093564,21.8744378 C6.0248856,21.7909547 5.90129148,21.7428616 5.77119533,21.7428616 C4.85752135,21.7428616 3.95929664,21.9049998 3.43513309,22.0205919 C3.27458299,21.2008072 3.53794294,20.3469917 3.54083273,20.3376168 C3.57673282,20.2249779 3.54839065,20.1046984 3.46425328,20.0121685 C3.38011592,19.9196387 3.24974191,19.8653582 3.11147654,19.8653582 C2.61965641,19.8653582 2.20397115,19.9396071 1.88314882,20.0253871 C2.00735425,19.6076902 2.24437265,19.0827448 2.60731923,18.5538621 C2.68695519,18.4378482 2.68712191,18.2947878 2.60770824,18.1786801 C2.52829457,18.0625256 2.38147098,17.9909954 2.2225325,17.9909954 L0.959527296,17.9909954 C1.12213359,17.4963777 1.52353662,16.9236675 1.70125874,16.7021864 C1.75210794,16.6390467 1.77789376,16.5657353 1.77800491,16.4921426 C1.77800491,16.4918145 1.77800491,16.491627 1.77800491,16.4915333 C1.77800491,16.4141907 1.74994059,16.3411605 1.70081415,16.2803645 C1.70070301,16.2802239 1.70059186,16.2800833 1.70048072,16.2799427 C1.70048072,16.2799427 1.70048072,16.2799427 1.70042514,16.2798958 C1.68769895,16.2641929 1.67369458,16.2494275 1.65846761,16.2356933 C1.65835646,16.2355996 1.65824532,16.2355058 1.65813417,16.2354121 C1.6580786,16.2353652 1.65802302,16.2353183 1.65796745,16.2352715 C1.61206424,16.1938814 1.55476858,16.1610694 1.48935928,16.1403979 C1.46868617,16.1338355 1.44740175,16.1286324 1.42561717,16.1247418 C1.42539488,16.124695 1.42517259,16.1246481 1.42500587,16.1246481 C1.39266245,16.1188826 1.36070803,16.1160701 1.3279756,16.1166326 L1.05778018,16.1166326 C1.321807,15.5927654 1.94055563,14.733325 3.296701,14.2083328 C3.47308937,14.1400369 3.578011,13.9816955 3.55372565,13.8192761 C3.51171254,13.5378896 3.25629951,13.4961246 2.83316748,13.4270319 C2.61398798,13.3912199 2.32234142,13.3464549 2.04036455,13.30319 C1.82174077,13.2696748 1.55732494,13.2290817 1.35292783,13.1962228 C1.44756847,12.4612806 1.88553846,11.7095105 2.5645281,11.1367534 C2.64877661,11.0657388 2.69562456,10.9691777 2.69473539,10.8687261 C2.69379066,10.7682744 2.6451088,10.6723227 2.55963768,10.6023863 L1.87925872,10.0458945 C2.44460179,9.18265735 3.5411106,8.16257873 5.00506739,7.82841182 C5.17495373,7.78964677 5.30171551,7.67002354 5.3283905,7.52326009 C5.35506549,7.37649665 5.27659656,7.23034256 5.1282725,7.15042188 L4.25344398,6.67896012 C5.76452659,5.51493052 8.18555979,5.2484501 9.05555348,5.2484501 C9.22066055,5.2484501 9.37215226,5.17129499 9.44900958,5.04806244 C9.52586689,4.9248299 9.51541919,4.77576961 9.42189,4.66102131 C9.38799054,4.6194438 9.35314633,4.57646007 9.31819098,4.53310133 C10.529569,4.64180285 11.1517075,5.00006316 11.6654234,5.49524331 C11.6667571,5.49655579 11.6683132,5.49768077 11.6697025,5.49894638 C11.6749263,5.50382131 11.6804836,5.50850874 11.6860409,5.51319617 C11.6915426,5.51783672 11.6970444,5.52247728 11.7027684,5.52683659 C11.7043244,5.52800845 11.7056582,5.52932093 11.7072698,5.53049279 C11.7106597,5.53297712 11.714272,5.53508647 11.7177175,5.53747706 C11.7244418,5.54211761 11.7311105,5.54675817 11.7380572,5.55102373 C11.7432254,5.55421118 11.7485604,5.55716427 11.7538399,5.56016422 C11.7607309,5.56400791 11.7676219,5.56785161 11.7746797,5.57136718 C11.7806816,5.57432026 11.7867946,5.57708584 11.7929076,5.57980455 C11.7994652,5.58271076 11.8060228,5.58561697 11.8126916,5.58819505 C11.8195826,5.59091376 11.8265848,5.59335123 11.833587,5.59574182 C11.8397556,5.59785116 11.8459241,5.59991363 11.8521483,5.6017886 C11.8597062,5.60403857 11.8673753,5.60600729 11.8750443,5.60788226 C11.8809906,5.60933537 11.8869369,5.61083534 11.8929944,5.61205408 C11.9009413,5.61369468 11.9089438,5.61505403 11.9169463,5.61636651 C11.9229482,5.61735087 11.9289501,5.61828836 11.9349519,5.61903835 C11.9429544,5.62002271 11.9509013,5.62072582 11.9588483,5.62133519 C11.9651836,5.62185081 11.9714633,5.62231955 11.9777986,5.62255392 C11.9854121,5.62288204 11.9930256,5.62292891 12.0006947,5.62292891 C12.007419,5.62292891 12.0141989,5.62288204 12.0209232,5.62260079 C12.0281477,5.62231955 12.0353166,5.62175706 12.0425411,5.62119457 C12.0496544,5.62063207 12.0567121,5.62002271 12.0638255,5.6191321 C12.0707165,5.61828836 12.077552,5.61721025 12.0843874,5.61613214 C12.0916119,5.61496028 12.0988364,5.61374155 12.1060053,5.61224157 C12.1127296,5.61088222 12.1193984,5.60924162 12.1260671,5.60755414 C12.1330693,5.60581979 12.1400159,5.60403857 12.1469625,5.6019761 C12.1538536,5.59996051 12.1606335,5.59766366 12.1674133,5.59531995 C12.1738598,5.59311686 12.1802507,5.59086689 12.1866416,5.58842943 C12.1938105,5.58561697 12.2008127,5.58257014 12.2078148,5.57942956 C12.2135389,5.57685147 12.2192629,5.57432026 12.2248757,5.57155468 C12.2322669,5.56789848 12.2393802,5.56396104 12.2465492,5.55992985 C12.2516063,5.55707052 12.256719,5.55425806 12.261665,5.55116435 C12.2686672,5.54680504 12.2755026,5.54216449 12.2822825,5.53747706 C12.285728,5.53508647 12.2893403,5.533024 12.2927302,5.53053966 C12.2942863,5.5293678 12.2956756,5.52805532 12.2972316,5.52688346 C12.3029556,5.52252415 12.3084018,5.51793047 12.3138479,5.51328992 C12.3194608,5.50855561 12.3250181,5.50386818 12.3302419,5.49899325 C12.3316313,5.49772765 12.3331317,5.49660266 12.334521,5.49529018 C12.8482369,5.00011003 13.4703755,4.64184972 14.6817534,4.53310133 C14.6467981,4.57646007 14.6118983,4.61949068 14.5780544,4.66106819 C14.4845252,4.77581648 14.4740775,4.9248299 14.5509348,5.04810932 C14.6277922,5.17134186 14.7792839,5.24849697 14.944391,5.24849697 C15.8143846,5.24849697 18.2354178,5.51493052 19.7465005,6.679007 L18.8716719,7.15046875 C18.7234034,7.23038944 18.6448789,7.37659039 18.6715539,7.52330697 C18.6982289,7.67002354 18.8249907,7.78969364 18.994877,7.82845869 C20.4588894,8.16262561 21.5554538,9.18265735 22.1206857,10.0459414 L21.4403067,10.6024332 C21.3548356,10.6723696 21.3061538,10.7683213 21.305209,10.868773 C21.3043199,10.9692246 21.3512234,11.0657857 21.4354163,11.1368002 C22.114406,11.7095105 22.552376,12.4613275 22.6470166,13.1962697 C22.4425639,13.2291286 22.1780925,13.2696748 21.9595799,13.3032368 C21.6775474,13.3465018 21.3859565,13.3912668 21.1667769,13.4270787 C20.7435893,13.4962183 20.4882319,13.5379365 20.4462188,13.8193229 C20.421989,13.9817424 20.5269106,14.1400838 20.703299,14.2083797 C22.059889,14.7336062 22.6785264,15.5933747 22.9422754,16.1166795 L22.6719688,16.1166795 C22.6258433,16.1161638 22.5808293,16.1216013 22.5358708,16.1332261 C22.349257,16.1816004 22.2219395,16.3270045 22.2219395,16.4916739 C22.2219395,16.4918614 22.2219395,16.4933614 22.2220507,16.4959395 C22.223051,16.5682196 22.2487257,16.640078 22.298519,16.7020927 C22.4764634,16.9237612 22.8778108,17.4964715 23.0404171,17.9910892 L21.7778009,17.9910892 L21.7778009,17.9909485 L21.7776342,17.9909485 Z" id="Shape"></path>
            <path d="M18.8591125,13.7406678 L19.480862,12.9539295 C19.5955089,12.8089473 19.5765585,12.6164345 19.4351811,12.4893583 C18.4768265,11.6278554 17.1626387,11.1923463 15.7351933,11.2628452 C14.4225059,11.3277193 13.1349375,11.8341493 12.5313047,12.5230609 C12.3853702,12.6896053 12.4271055,12.9243987 12.6246116,13.0474438 C12.8220621,13.1705357 13.1004823,13.1353331 13.2463055,12.9687418 C13.6132534,12.5500136 14.5648836,12.0718957 15.7872095,12.0114748 C16.5400555,11.9743972 17.6002752,12.0881611 18.5368452,12.7962444 L17.8521872,13.6625284 C17.7782196,13.7560895 17.7579911,13.8726659 17.7969477,13.9801487 C17.8359043,14.0876314 17.9300448,14.1747708 18.0533055,14.2174264 C18.742854,14.4561104 19.3518217,15.239005 19.5746691,15.8544177 C19.6331873,16.0159935 19.8092978,16.1199607 19.9996906,16.1199607 C20.042704,16.1199607 20.0864399,16.1146639 20.1297311,16.1035078 C20.3645822,16.0429931 20.4967901,15.833418 20.4250455,15.6353272 C20.1901945,14.9868212 19.6224062,14.1867706 18.8591125,13.7406678 Z" id="Path"></path>
            <path d="M8.2646956,11.2627984 C6.83697233,11.1921119 5.52306235,11.6278554 4.56470777,12.4893114 C4.42333032,12.6163877 4.40437996,12.8089004 4.51902685,12.9538826 L5.1407764,13.740621 C4.37748268,14.1867706 3.80963883,14.9867744 3.57478777,15.6353272 C3.50304316,15.833418 3.63525108,16.0429931 3.87010214,16.1035078 C3.91339343,16.1146639 3.95707372,16.1199607 4.00014272,16.1199607 C4.19053546,16.1199607 4.36664596,16.0159935 4.42516422,15.8544177 C4.64806711,15.239005 5.25697933,14.4560635 5.94652782,14.2174264 C6.06984408,14.1747708 6.16392899,14.0876314 6.20288559,13.9801487 C6.24184219,13.8726659 6.22155808,13.7560426 6.14764613,13.6625284 L5.46298805,12.7962444 C6.39955807,12.0881142 7.45955548,11.9742566 8.21262379,12.0114748 C9.43494963,12.0718957 10.3865799,12.5500136 10.7535277,12.9687418 C10.8995177,13.1353331 11.1778824,13.1705357 11.3752217,13.0474438 C11.5726722,12.9243518 11.614463,12.6895116 11.4685286,12.5230609 C10.8649514,11.8341493 9.57738297,11.3276724 8.2646956,11.2627984 Z" id="Path"></path>
            <path d="M11.532104,21.7292681 C11.6862076,21.7362992 11.8436457,21.7399085 12.0000278,21.7399085 C12.1670799,21.7399085 12.3347989,21.7358773 12.4985167,21.727815 C12.7436487,21.7158151 12.9308182,21.5384896 12.9165916,21.3317271 C12.9023649,21.1249645 12.6922993,20.9669513 12.4470006,20.9790917 C12.1630787,20.9929665 11.8659304,20.9934352 11.5802857,20.9803573 C11.3356538,20.9692481 11.1255883,21.1277301 11.1123063,21.3344927 C11.0989689,21.5412552 11.286972,21.7180651 11.532104,21.7292681 Z" id="Path"></path>
        </g>
    </g>
</svg>